<?xml version="1.0" encoding="UTF-8" standalone="no"?>
<!-- Created with Inkscape (http://www.inkscape.org/) -->

<svg
   xmlns:dc="http://purl.org/dc/elements/1.1/"
   xmlns:cc="http://creativecommons.org/ns#"
   xmlns:rdf="http://www.w3.org/1999/02/22-rdf-syntax-ns#"
   xmlns:svg="http://www.w3.org/2000/svg"
   xmlns="http://www.w3.org/2000/svg"
   xmlns:sodipodi="http://sodipodi.sourceforge.net/DTD/sodipodi-0.dtd"
   xmlns:inkscape="http://www.inkscape.org/namespaces/inkscape"
   width="111.85574mm"
   height="83.671989mm"
   viewBox="0 0 111.85575 83.671989"
   version="1.1"
   id="svg8"
   inkscape:version="0.91 r13725"
   sodipodi:docname="BLELoc-Icon.svg">
  <defs
     id="defs2" />
  <sodipodi:namedview
     id="base"
     pagecolor="#ffffff"
     bordercolor="#666666"
     borderopacity="1.0"
     inkscape:pageopacity="0.0"
     inkscape:pageshadow="2"
     inkscape:zoom="1.458787"
     inkscape:cx="196.8778"
     inkscape:cy="146.37482"
     inkscape:document-units="mm"
     inkscape:current-layer="layer1"
     showgrid="true"
     inkscape:window-width="1366"
     inkscape:window-height="705"
     inkscape:window-x="-8"
     inkscape:window-y="-8"
     inkscape:window-maximized="1"
     fit-margin-top="0"
     fit-margin-left="0"
     fit-margin-right="0"
     fit-margin-bottom="0" />
  <metadata
     id="metadata5">
    <rdf:RDF>
      <cc:Work
         rdf:about="">
        <dc:format>image/svg+xml</dc:format>
        <dc:type
           rdf:resource="http://purl.org/dc/dcmitype/StillImage" />
        <dc:title></dc:title>
      </cc:Work>
    </rdf:RDF>
  </metadata>
  <g
     inkscape:label="Ebene 1"
     inkscape:groupmode="layer"
     id="layer1"
     transform="translate(-128.79804,-212.88409)">
    <path
       style="fill:#39a0ff;fill-opacity:1;stroke:none;stroke-width:0.26458332px;stroke-linecap:butt;stroke-linejoin:miter;stroke-opacity:1"
       d="m 129.13335,229.48525 -0.33531,50.35114 36.17125,-10e-6 6.09947,-7.23424 -34.18539,0 0.47717,-43.25874 z"
       id="path4540"
       inkscape:connector-curvature="0"
       sodipodi:nodetypes="ccccccc" />
    <path
       style="fill:#4daaff;fill-opacity:1;stroke:none;stroke-width:0.26458332px;stroke-linecap:butt;stroke-linejoin:miter;stroke-opacity:1"
       d="m 179.95344,270.13484 -16.56312,17.05 4.77356,4.20616 20.3799,-21.256 z m 8.59034,1.6e-4 20.98447,20.68861 4.9154,-4.20616 -16.41254,-16.48245 z"
       id="path4534-5"
       inkscape:connector-curvature="0"
       sodipodi:nodetypes="cccccccccc" />
    <ellipse
       style="fill:#75beff;fill-opacity:1;stroke:none;stroke-width:0.755;stroke-miterlimit:4;stroke-dasharray:none;stroke-opacity:1"
       id="path4561"
       cx="206.6017"
       cy="232.88467"
       rx="2.1986449"
       ry="1.2766325" />
    <ellipse
       style="fill:#89c8ff;fill-opacity:1;stroke:none;stroke-width:0.755;stroke-miterlimit:4;stroke-dasharray:none;stroke-opacity:1"
       id="path4563"
       cx="203.69382"
       cy="227.21075"
       rx="3.6880498"
       ry="2.2695692" />
    <ellipse
       style="fill:#9dd2ff;fill-opacity:1;stroke:none;stroke-width:0.755;stroke-miterlimit:4;stroke-dasharray:none;stroke-opacity:1"
       id="path4565"
       cx="194.68648"
       cy="221.25313"
       rx="6.1703911"
       ry="2.9788094" />
    <ellipse
       style="fill:#b1dcff;fill-opacity:1;stroke:none;stroke-width:0.755;stroke-miterlimit:4;stroke-dasharray:none;stroke-opacity:1"
       id="path4569"
       cx="176.10439"
       cy="216.85583"
       rx="10.283984"
       ry="3.971746" />
    <g
       id="g3438">
      <ellipse
         ry="9.4328957"
         rx="9.3623037"
         cy="285.4249"
         cx="188.6666"
         id="path4559"
         style="fill:#61b4ff;fill-opacity:1;stroke:none;stroke-width:0.755;stroke-miterlimit:4;stroke-dasharray:none;stroke-opacity:1" />
      <circle
         r="1.562081"
         cy="285.37457"
         cx="188.71759"
         id="path4571"
         style="fill:#c5e6ff;fill-opacity:1;stroke:none;stroke-width:0.755;stroke-miterlimit:4;stroke-dasharray:none;stroke-opacity:1" />
      <path
         sodipodi:nodetypes="ccccc"
         inkscape:connector-curvature="0"
         id="path4573"
         d="m 186.769,277.77354 1.35273,5.31429 c 0.6985,-0.0825 1.07211,-0.0568 1.25611,0.0322 l 1.54598,-5.3143 c -1.38494,-0.24387 -2.76988,-0.3835 -4.15482,-0.0322 z"
         style="fill:#d9f0ff;fill-opacity:1;stroke:none;stroke-width:0.26458332px;stroke-linecap:butt;stroke-linejoin:miter;stroke-opacity:1" />
      <path
         sodipodi:nodetypes="ccccc"
         inkscape:connector-curvature="0"
         id="path4573-6"
         d="m 196.40607,283.44211 -5.31429,1.35273 c 0.0825,0.6985 0.0568,1.07211 -0.0322,1.25611 l 5.3143,1.54598 c 0.24387,-1.38494 0.3835,-2.76988 0.0322,-4.15482 z"
         style="fill:#d9f0ff;fill-opacity:1;stroke:none;stroke-width:0.26458332px;stroke-linecap:butt;stroke-linejoin:miter;stroke-opacity:1" />
      <path
         sodipodi:nodetypes="ccccc"
         inkscape:connector-curvature="0"
         id="path4573-4"
         d="m 190.69838,293.1275 -1.35273,-5.31429 c -0.6985,0.0825 -1.07211,0.0568 -1.25611,-0.0322 l -1.54598,5.3143 c 1.38494,0.24387 2.76988,0.3835 4.15482,0.0322 z"
         style="fill:#d9f0ff;fill-opacity:1;stroke:none;stroke-width:0.26458332px;stroke-linecap:butt;stroke-linejoin:miter;stroke-opacity:1" />
      <path
         sodipodi:nodetypes="ccccc"
         inkscape:connector-curvature="0"
         id="path4573-8"
         d="m 181.0774,287.38759 5.31429,-1.35273 c -0.0825,-0.6985 -0.0568,-1.07211 0.0322,-1.25611 l -5.3143,-1.54598 c -0.24387,1.38494 -0.3835,2.76988 -0.0322,4.15482 z"
         style="fill:#d9f0ff;fill-opacity:1;stroke:none;stroke-width:0.26458332px;stroke-linecap:butt;stroke-linejoin:miter;stroke-opacity:1" />
      <path
         sodipodi:nodetypes="ccccc"
         inkscape:connector-curvature="0"
         id="path4573-9"
         d="m 181.90642,281.37249 4.71429,2.80124 c 0.43558,-0.55225 0.71793,-0.79826 0.91097,-0.86543 l -2.6646,-4.85095 c -1.15174,0.80685 -2.22978,1.68742 -2.96067,2.91513 z"
         style="fill:#d9f0ff;fill-opacity:1;stroke:none;stroke-width:0.26458332px;stroke-linecap:butt;stroke-linejoin:miter;stroke-opacity:1" />
      <path
         sodipodi:nodetypes="ccccc"
         inkscape:connector-curvature="0"
         id="path4573-9-6"
         d="m 192.81824,278.62205 -2.80124,4.71429 c 0.55225,0.43558 0.79826,0.71793 0.86543,0.91097 l 4.85095,-2.6646 c -0.80685,-1.15174 -1.68742,-2.22978 -2.91513,-2.96067 z"
         style="fill:#d9f0ff;fill-opacity:1;stroke:none;stroke-width:0.26458332px;stroke-linecap:butt;stroke-linejoin:miter;stroke-opacity:1" />
      <path
         sodipodi:nodetypes="ccccc"
         inkscape:connector-curvature="0"
         id="path4573-9-5"
         d="m 195.50788,289.55297 -4.7143,-2.80124 c -0.43557,0.55226 -0.71793,0.79827 -0.91097,0.86543 l 2.66461,4.85096 c 1.15174,-0.80685 2.22978,-1.68742 2.96066,-2.91513 z"
         style="fill:#d9f0ff;fill-opacity:1;stroke:none;stroke-width:0.26458332px;stroke-linecap:butt;stroke-linejoin:miter;stroke-opacity:1" />
      <path
         sodipodi:nodetypes="ccccc"
         inkscape:connector-curvature="0"
         id="path4573-9-8"
         d="m 184.60361,292.18096 2.80124,-4.71429 c -0.55224,-0.43559 -0.79827,-0.71793 -0.86543,-0.91097 l -4.85096,2.6646 c 0.80685,1.15174 1.68744,2.22978 2.91515,2.96067 z"
         style="fill:#d9f0ff;fill-opacity:1;stroke:none;stroke-width:0.26458332px;stroke-linecap:butt;stroke-linejoin:miter;stroke-opacity:1" />
    </g>
    <g
       id="g3426">
      <ellipse
         ry="12.203495"
         rx="12.515055"
         cy="282.22922"
         cx="228.13873"
         id="path4559-0"
         style="fill:#61b4ff;fill-opacity:1;stroke:none;stroke-width:0.99286813;stroke-miterlimit:4;stroke-dasharray:none;stroke-opacity:1" />
      <ellipse
         ry="2.0208902"
         rx="2.0881109"
         cy="282.16412"
         cx="228.20691"
         id="path4571-7"
         style="fill:#c5e6ff;fill-opacity:1;stroke:none;stroke-width:0.99286813;stroke-miterlimit:4;stroke-dasharray:none;stroke-opacity:1" />
      <path
         sodipodi:nodetypes="ccccc"
         inkscape:connector-curvature="0"
         id="path4573-3"
         d="m 225.60215,272.33057 1.80826,6.87519 c 0.93373,-0.10672 1.43314,-0.0735 1.67911,0.0416 l 2.06658,-6.8752 c -1.85132,-0.3155 -3.70264,-0.49614 -5.55395,-0.0416 z"
         style="fill:#d9f0ff;fill-opacity:1;stroke:none;stroke-width:0.34794217px;stroke-linecap:butt;stroke-linejoin:miter;stroke-opacity:1" />
      <path
         sodipodi:nodetypes="ccccc"
         inkscape:connector-curvature="0"
         id="path4573-6-7"
         d="m 238.48449,279.6641 -7.10386,1.75004 c 0.11024,0.90367 0.0759,1.38702 -0.0431,1.62506 l 7.10387,2.00005 c 0.326,-1.79171 0.51265,-3.58343 0.0431,-5.37515 z"
         style="fill:#d9f0ff;fill-opacity:1;stroke:none;stroke-width:0.34794217px;stroke-linecap:butt;stroke-linejoin:miter;stroke-opacity:1" />
      <path
         sodipodi:nodetypes="ccccc"
         inkscape:connector-curvature="0"
         id="path4573-4-2"
         d="m 230.85475,292.19425 -1.80826,-6.87518 c -0.93372,0.10672 -1.43315,0.0735 -1.67911,-0.0416 l -2.06658,6.8752 c 1.85131,0.3155 3.70263,0.49614 5.55395,0.0416 z"
         style="fill:#d9f0ff;fill-opacity:1;stroke:none;stroke-width:0.34794217px;stroke-linecap:butt;stroke-linejoin:miter;stroke-opacity:1" />
      <path
         sodipodi:nodetypes="ccccc"
         inkscape:connector-curvature="0"
         id="path4573-8-5"
         d="m 217.99391,284.76843 7.10386,-1.75005 c -0.11023,-0.90366 -0.0759,-1.387 0.0431,-1.62505 l -7.10387,-2.00006 c -0.326,1.79173 -0.51265,3.58345 -0.0431,5.37516 z"
         style="fill:#d9f0ff;fill-opacity:1;stroke:none;stroke-width:0.34794217px;stroke-linecap:butt;stroke-linejoin:miter;stroke-opacity:1" />
      <path
         sodipodi:nodetypes="ccccc"
         inkscape:connector-curvature="0"
         id="path4573-9-7"
         d="m 219.1021,276.9866 6.30182,3.62401 c 0.58226,-0.71445 0.9597,-1.03272 1.21774,-1.11962 l -3.56191,-6.27575 c -1.53958,1.04383 -2.98065,2.18304 -3.95766,3.77135 z"
         style="fill:#d9f0ff;fill-opacity:1;stroke:none;stroke-width:0.34794217px;stroke-linecap:butt;stroke-linejoin:miter;stroke-opacity:1" />
      <path
         sodipodi:nodetypes="ccccc"
         inkscape:connector-curvature="0"
         id="path4573-9-6-6"
         d="m 233.68846,273.42831 -3.74456,6.09896 c 0.73823,0.5635 1.06708,0.92879 1.15687,1.17853 l 6.48451,-3.44724 c -1.07856,-1.49003 -2.25566,-2.8847 -3.89681,-3.83026 z"
         style="fill:#d9f0ff;fill-opacity:1;stroke:none;stroke-width:0.34794217px;stroke-linecap:butt;stroke-linejoin:miter;stroke-opacity:1" />
      <path
         sodipodi:nodetypes="ccccc"
         inkscape:connector-curvature="0"
         id="path4573-9-5-4"
         d="m 237.28385,287.56982 -6.30184,-3.62402 c -0.58226,0.71448 -0.9597,1.03274 -1.21774,1.11963 l 3.56191,6.27578 c 1.53959,-1.04384 2.98066,-2.18305 3.95767,-3.77136 z"
         style="fill:#d9f0ff;fill-opacity:1;stroke:none;stroke-width:0.34794217px;stroke-linecap:butt;stroke-linejoin:miter;stroke-opacity:1" />
      <path
         sodipodi:nodetypes="ccccc"
         inkscape:connector-curvature="0"
         id="path4573-9-8-3"
         d="m 222.70756,290.9697 3.74456,-6.09896 c -0.7382,-0.56353 -1.06708,-0.9288 -1.15686,-1.17853 l -6.48452,3.44723 c 1.07856,1.49003 2.25569,2.88471 3.89682,3.83027 z"
         style="fill:#d9f0ff;fill-opacity:1;stroke:none;stroke-width:0.34794217px;stroke-linecap:butt;stroke-linejoin:miter;stroke-opacity:1" />
    </g>
    <path
       style="fill:#4daaff;fill-opacity:1;stroke:none;stroke-width:0.26458332px;stroke-linecap:butt;stroke-linejoin:miter;stroke-opacity:1"
       d="m 187.1431,267.83036 0.0407,-7.45167 -6.71806,-0.017 -24.40251,0.2545 11.86597,-13.70998 12.53654,13.45548 6.71806,0.017 -0.11351,-2.37321 -19.56665,-20.93008 -26.32846,30.72575 z"
       id="path4534-5-4"
       inkscape:connector-curvature="0"
       sodipodi:nodetypes="ccccccccccc" />
    <path
       style="fill:#4daaff;fill-opacity:1;stroke:none;stroke-width:0.26458332px;stroke-linecap:butt;stroke-linejoin:miter;stroke-opacity:1"
       d="m 227.2778,257.90567 -19.45198,-20.83927 -18.12367,20.57373 0.0237,10.26467 46.98171,0.0292 -7.22043,-7.7169 -33.43436,0.27742 11.91491,-13.31363 10.06808,10.86293 z"
       id="path4534-5-6"
       inkscape:connector-curvature="0"
       sodipodi:nodetypes="cccccccccc" />
    <g
       id="g4275"
       transform="translate(-0.6825143,0.44338062)">
      <path
         d="m 162.5555,280.83789 a 15.074483,15.27481 0 0 1 -7.53724,13.22837 15.074483,15.27481 0 0 1 -15.07448,0 15.074483,15.27481 0 0 1 -7.53724,-13.22837"
         sodipodi:open="true"
         sodipodi:end="3.1415927"
         sodipodi:start="0"
         sodipodi:ry="15.27481"
         sodipodi:rx="15.074483"
         sodipodi:cy="280.83789"
         sodipodi:cx="147.48102"
         sodipodi:type="arc"
         id="path4559-0-8"
         style="fill:#61b4ff;fill-opacity:1;stroke:none;stroke-width:0.99286813;stroke-miterlimit:4;stroke-dasharray:none;stroke-opacity:1" />
      <path
         sodipodi:open="true"
         d="m 149.99829,281.5528 a 2.5151463,2.5294976 0 0 1 -2.4309,1.89662 2.5151463,2.5294976 0 0 1 -2.43726,-1.88835"
         sodipodi:end="2.8853264"
         sodipodi:start="0.25288558"
         sodipodi:ry="2.5294976"
         sodipodi:rx="2.5151463"
         sodipodi:cy="280.91992"
         sodipodi:cx="147.56314"
         sodipodi:type="arc"
         id="path4571-7-9"
         style="fill:#c5e6ff;fill-opacity:1;stroke:none;stroke-width:0.99286813;stroke-miterlimit:4;stroke-dasharray:none;stroke-opacity:1" />
      <path
         sodipodi:nodetypes="ccccc"
         inkscape:connector-curvature="0"
         id="path4573-4-2-8"
         d="m 150.75211,293.31061 -2.17806,-8.60549 c -1.12467,0.13359 -1.72624,0.0921 -2.0225,-0.0521 l -2.48921,8.60552 c 2.22991,0.3949 4.45984,0.621 6.68977,0.0521 z"
         style="fill:#d9f0ff;fill-opacity:1;stroke:none;stroke-width:0.34794217px;stroke-linecap:butt;stroke-linejoin:miter;stroke-opacity:1" />
      <path
         sodipodi:nodetypes="cccccc"
         inkscape:connector-curvature="0"
         id="path4573-8-5-6"
         d="m 135.17122,284.13268 8.56574,-2.1905 c -0.0365,-0.0988 -0.0593,-0.19299 -0.0735,-0.3035 l -8.84505,0.0563 c -0.0728,1.05256 0.0471,1.43685 0.35265,2.43792 z"
         style="fill:#d9f0ff;fill-opacity:1;stroke:none;stroke-width:0.34794217px;stroke-linecap:butt;stroke-linejoin:miter;stroke-opacity:1" />
      <path
         sodipodi:nodetypes="ccccc"
         inkscape:connector-curvature="0"
         id="path4573-9-5-4-4"
         d="m 158.49602,287.52233 -7.59062,-4.53609 c -0.70133,0.8943 -1.15596,1.29266 -1.46678,1.40141 l 4.29035,7.85523 c 1.85446,-1.30655 3.59023,-2.73246 4.76705,-4.72051 z"
         style="fill:#d9f0ff;fill-opacity:1;stroke:none;stroke-width:0.34794217px;stroke-linecap:butt;stroke-linejoin:miter;stroke-opacity:1" />
      <path
         sodipodi:nodetypes="ccccc"
         inkscape:connector-curvature="0"
         id="path4573-9-8-3-7"
         d="m 140.93877,291.77789 4.51034,-7.63394 c -0.88916,-0.70534 -1.2853,-1.16254 -1.39344,-1.47513 l -7.81066,4.31482 c 1.29913,1.86503 2.717,3.61071 4.69376,4.79426 z"
         style="fill:#d9f0ff;fill-opacity:1;stroke:none;stroke-width:0.34794217px;stroke-linecap:butt;stroke-linejoin:miter;stroke-opacity:1" />
      <path
         sodipodi:nodetypes="cccccc"
         inkscape:connector-curvature="0"
         id="path4573-8-5-6-5"
         d="m 159.93882,284.08115 -8.55665,-2.19049 c 0.0332,-0.15619 0.0506,-0.24238 0.0605,-0.37748 l 8.84886,0.0191 c 0.0727,1.05255 -0.0471,1.54783 -0.35267,2.54887 z"
         style="fill:#d9f0ff;fill-opacity:1;stroke:none;stroke-width:0.34794217px;stroke-linecap:butt;stroke-linejoin:miter;stroke-opacity:1" />
    </g>
  </g>
</svg>
