<?xml version="1.0" encoding="UTF-8" standalone="no"?>
<!-- Created with Inkscape (http://www.inkscape.org/) -->

<svg
   xmlns:dc="http://purl.org/dc/elements/1.1/"
   xmlns:cc="http://creativecommons.org/ns#"
   xmlns:rdf="http://www.w3.org/1999/02/22-rdf-syntax-ns#"
   xmlns:svg="http://www.w3.org/2000/svg"
   xmlns="http://www.w3.org/2000/svg"
   xmlns:sodipodi="http://sodipodi.sourceforge.net/DTD/sodipodi-0.dtd"
   xmlns:inkscape="http://www.inkscape.org/namespaces/inkscape"
   width="238.86504mm"
   height="95.532341mm"
   viewBox="0 0 238.86504 95.532341"
   version="1.1"
   id="svg8"
   inkscape:version="0.92.3 (2405546, 2018-03-11)"
   sodipodi:docname="BLELoc-Logo.svg">
  <defs
     id="defs2" />
  <sodipodi:namedview
     id="base"
     pagecolor="#ffffff"
     bordercolor="#666666"
     borderopacity="1.0"
     inkscape:pageopacity="0.0"
     inkscape:pageshadow="2"
     inkscape:zoom="1.4709841"
     inkscape:cx="451.39849"
     inkscape:cy="180.53356"
     inkscape:document-units="mm"
     inkscape:current-layer="layer1"
     showgrid="true"
     inkscape:window-width="1920"
     inkscape:window-height="1017"
     inkscape:window-x="1016"
     inkscape:window-y="-8"
     inkscape:window-maximized="1" />
  <metadata
     id="metadata5">
    <rdf:RDF>
      <cc:Work
         rdf:about="">
        <dc:format>image/svg+xml</dc:format>
        <dc:type
           rdf:resource="http://purl.org/dc/dcmitype/StillImage" />
        <dc:title></dc:title>
      </cc:Work>
    </rdf:RDF>
  </metadata>
  <g
     inkscape:label="Ebene 1"
     inkscape:groupmode="layer"
     id="layer1"
     transform="translate(-1.7887533,-199.58034)">
    <path
       style="fill:#0082fc;fill-opacity:1;stroke:none;stroke-width:0.26458332px;stroke-linecap:butt;stroke-linejoin:miter;stroke-opacity:1"
       d="M 25.236972,295.11268 56.104579,266.23095 5.994915,221.79521 1.7887533,226.56877 45.990078,266.3728 32.70564,278.52246 32.563792,214.46839 46.273774,226.33436 2.3561452,267.93314 6.5623073,272.84854 56.104579,225.9088 25.378821,199.58034 Z"
       id="path4534"
       inkscape:connector-curvature="0"
       sodipodi:nodetypes="ccccccccccccc" />
    <path
       style="fill:#118cff;fill-opacity:1;stroke:none;stroke-width:0.26458332px;stroke-linecap:butt;stroke-linejoin:miter;stroke-opacity:1"
       d="m 65.959351,201.1107 -2e-6,93.47788 99.577341,1e-5 -8.36902,-6.95056 -83.974069,-0.42555 0.283697,-86.10177 z"
       id="path4536"
       inkscape:connector-curvature="0"
       sodipodi:nodetypes="ccccccc" />
    <path
       style="fill:#2596ff;fill-opacity:1;stroke:none;stroke-width:0.26458332px;stroke-linecap:butt;stroke-linejoin:miter;stroke-opacity:1"
       d="m 81.42079,201.6781 -2e-6,78.58382 39.433762,-0.14184 v -9.22012 l -31.206572,0.28369 v -22.55384 l 23.546782,-0.14185 v -10.35491 l -23.83048,0.14185 0.141849,-27.23482 29.504391,-0.14186 0.14185,-9.22012 z"
       id="path4538"
       inkscape:connector-curvature="0"
       sodipodi:nodetypes="ccccccccccccc" />
    <path
       style="fill:#39a0ff;fill-opacity:1;stroke:none;stroke-width:0.26458332px;stroke-linecap:butt;stroke-linejoin:miter;stroke-opacity:1"
       d="m 128.93989,201.81995 -0.14185,78.01644 36.17125,-10e-6 6.09947,-7.23424 h -34.18539 l 0.28371,-70.92404 z"
       id="path4540"
       inkscape:connector-curvature="0"
       sodipodi:nodetypes="ccccccc" />
    <path
       style="fill:#4daaff;fill-opacity:1;stroke:none;stroke-width:0.26458332px;stroke-linecap:butt;stroke-linejoin:miter;stroke-opacity:1"
       d="m 179.95344,270.13484 -16.56312,17.05 4.77356,4.20616 20.3799,-21.256 z m 8.59034,1.6e-4 20.98447,20.68861 4.9154,-4.20616 -16.41254,-16.48245 z"
       id="path4534-5"
       inkscape:connector-curvature="0"
       sodipodi:nodetypes="cccccccccc" />
    <ellipse
       style="fill:#61b4ff;fill-opacity:1;stroke:none;stroke-width:0.755;stroke-miterlimit:4;stroke-dasharray:none;stroke-opacity:1"
       id="path4559"
       cx="188.6666"
       cy="285.4249"
       rx="9.3623037"
       ry="9.4328957" />
    <ellipse
       style="fill:#75beff;fill-opacity:1;stroke:none;stroke-width:0.755;stroke-miterlimit:4;stroke-dasharray:none;stroke-opacity:1"
       id="path4561"
       cx="206.6017"
       cy="232.88467"
       rx="2.1986449"
       ry="1.2766325" />
    <ellipse
       style="fill:#89c8ff;fill-opacity:1;stroke:none;stroke-width:0.755;stroke-miterlimit:4;stroke-dasharray:none;stroke-opacity:1"
       id="path4563"
       cx="203.69382"
       cy="227.21075"
       rx="3.6880498"
       ry="2.2695692" />
    <ellipse
       style="fill:#9dd2ff;fill-opacity:1;stroke:none;stroke-width:0.755;stroke-miterlimit:4;stroke-dasharray:none;stroke-opacity:1"
       id="path4565"
       cx="194.68648"
       cy="221.25313"
       rx="6.1703911"
       ry="2.9788094" />
    <ellipse
       style="fill:#b1dcff;fill-opacity:1;stroke:none;stroke-width:0.755;stroke-miterlimit:4;stroke-dasharray:none;stroke-opacity:1"
       id="path4569"
       cx="176.10439"
       cy="216.85583"
       rx="10.283984"
       ry="3.971746" />
    <circle
       style="fill:#c5e6ff;fill-opacity:1;stroke:none;stroke-width:0.755;stroke-miterlimit:4;stroke-dasharray:none;stroke-opacity:1"
       id="path4571"
       cx="188.71759"
       cy="285.37457"
       r="1.562081" />
    <path
       style="fill:#d9f0ff;fill-opacity:1;stroke:none;stroke-width:0.26458332px;stroke-linecap:butt;stroke-linejoin:miter;stroke-opacity:1"
       d="m 186.769,277.77354 1.35273,5.31429 c 0.6985,-0.0825 1.07211,-0.0568 1.25611,0.0322 l 1.54598,-5.3143 c -1.38494,-0.24387 -2.76988,-0.3835 -4.15482,-0.0322 z"
       id="path4573"
       inkscape:connector-curvature="0"
       sodipodi:nodetypes="ccccc" />
    <path
       style="fill:#d9f0ff;fill-opacity:1;stroke:none;stroke-width:0.26458332px;stroke-linecap:butt;stroke-linejoin:miter;stroke-opacity:1"
       d="m 196.40607,283.44211 -5.31429,1.35273 c 0.0825,0.6985 0.0568,1.07211 -0.0322,1.25611 l 5.3143,1.54598 c 0.24387,-1.38494 0.3835,-2.76988 0.0322,-4.15482 z"
       id="path4573-6"
       inkscape:connector-curvature="0"
       sodipodi:nodetypes="ccccc" />
    <path
       style="fill:#d9f0ff;fill-opacity:1;stroke:none;stroke-width:0.26458332px;stroke-linecap:butt;stroke-linejoin:miter;stroke-opacity:1"
       d="m 190.69838,293.1275 -1.35273,-5.31429 c -0.6985,0.0825 -1.07211,0.0568 -1.25611,-0.0322 l -1.54598,5.3143 c 1.38494,0.24387 2.76988,0.3835 4.15482,0.0322 z"
       id="path4573-4"
       inkscape:connector-curvature="0"
       sodipodi:nodetypes="ccccc" />
    <path
       style="fill:#d9f0ff;fill-opacity:1;stroke:none;stroke-width:0.26458332px;stroke-linecap:butt;stroke-linejoin:miter;stroke-opacity:1"
       d="m 181.0774,287.38759 5.31429,-1.35273 c -0.0825,-0.6985 -0.0568,-1.07211 0.0322,-1.25611 l -5.3143,-1.54598 c -0.24387,1.38494 -0.3835,2.76988 -0.0322,4.15482 z"
       id="path4573-8"
       inkscape:connector-curvature="0"
       sodipodi:nodetypes="ccccc" />
    <path
       style="fill:#d9f0ff;fill-opacity:1;stroke:none;stroke-width:0.26458332px;stroke-linecap:butt;stroke-linejoin:miter;stroke-opacity:1"
       d="m 181.90642,281.37249 4.71429,2.80124 c 0.43558,-0.55225 0.71793,-0.79826 0.91097,-0.86543 l -2.6646,-4.85095 c -1.15174,0.80685 -2.22978,1.68742 -2.96067,2.91513 z"
       id="path4573-9"
       inkscape:connector-curvature="0"
       sodipodi:nodetypes="ccccc" />
    <path
       style="fill:#d9f0ff;fill-opacity:1;stroke:none;stroke-width:0.26458332px;stroke-linecap:butt;stroke-linejoin:miter;stroke-opacity:1"
       d="m 192.81824,278.62205 -2.80124,4.71429 c 0.55225,0.43558 0.79826,0.71793 0.86543,0.91097 l 4.85095,-2.6646 c -0.80685,-1.15174 -1.68742,-2.22978 -2.91513,-2.96067 z"
       id="path4573-9-6"
       inkscape:connector-curvature="0"
       sodipodi:nodetypes="ccccc" />
    <path
       style="fill:#d9f0ff;fill-opacity:1;stroke:none;stroke-width:0.26458332px;stroke-linecap:butt;stroke-linejoin:miter;stroke-opacity:1"
       d="m 195.50788,289.55297 -4.7143,-2.80124 c -0.43557,0.55226 -0.71793,0.79827 -0.91097,0.86543 l 2.66461,4.85096 c 1.15174,-0.80685 2.22978,-1.68742 2.96066,-2.91513 z"
       id="path4573-9-5"
       inkscape:connector-curvature="0"
       sodipodi:nodetypes="ccccc" />
    <path
       style="fill:#d9f0ff;fill-opacity:1;stroke:none;stroke-width:0.26458332px;stroke-linecap:butt;stroke-linejoin:miter;stroke-opacity:1"
       d="m 184.60361,292.18096 2.80124,-4.71429 c -0.55224,-0.43559 -0.79827,-0.71793 -0.86543,-0.91097 l -4.85096,2.6646 c 0.80685,1.15174 1.68744,2.22978 2.91515,2.96067 z"
       id="path4573-9-8"
       inkscape:connector-curvature="0"
       sodipodi:nodetypes="ccccc" />
    <ellipse
       style="fill:#61b4ff;fill-opacity:1;stroke:none;stroke-width:0.99286813;stroke-miterlimit:4;stroke-dasharray:none;stroke-opacity:1"
       id="path4559-0"
       cx="228.13873"
       cy="282.22922"
       rx="12.515055"
       ry="12.203495" />
    <ellipse
       style="fill:#c5e6ff;fill-opacity:1;stroke:none;stroke-width:0.99286813;stroke-miterlimit:4;stroke-dasharray:none;stroke-opacity:1"
       id="path4571-7"
       cx="228.20691"
       cy="282.16412"
       rx="2.0881109"
       ry="2.0208902" />
    <path
       style="fill:#d9f0ff;fill-opacity:1;stroke:none;stroke-width:0.34794217px;stroke-linecap:butt;stroke-linejoin:miter;stroke-opacity:1"
       d="m 225.60215,272.33057 1.80826,6.87519 c 0.93373,-0.10672 1.43314,-0.0735 1.67911,0.0416 l 2.06658,-6.8752 c -1.85132,-0.3155 -3.70264,-0.49614 -5.55395,-0.0416 z"
       id="path4573-3"
       inkscape:connector-curvature="0"
       sodipodi:nodetypes="ccccc" />
    <path
       style="fill:#d9f0ff;fill-opacity:1;stroke:none;stroke-width:0.34794217px;stroke-linecap:butt;stroke-linejoin:miter;stroke-opacity:1"
       d="m 238.48449,279.6641 -7.10386,1.75004 c 0.11024,0.90367 0.0759,1.38702 -0.0431,1.62506 l 7.10387,2.00005 c 0.326,-1.79171 0.51265,-3.58343 0.0431,-5.37515 z"
       id="path4573-6-7"
       inkscape:connector-curvature="0"
       sodipodi:nodetypes="ccccc" />
    <path
       style="fill:#d9f0ff;fill-opacity:1;stroke:none;stroke-width:0.34794217px;stroke-linecap:butt;stroke-linejoin:miter;stroke-opacity:1"
       d="m 230.85475,292.19425 -1.80826,-6.87518 c -0.93372,0.10672 -1.43315,0.0735 -1.67911,-0.0416 l -2.06658,6.8752 c 1.85131,0.3155 3.70263,0.49614 5.55395,0.0416 z"
       id="path4573-4-2"
       inkscape:connector-curvature="0"
       sodipodi:nodetypes="ccccc" />
    <path
       style="fill:#d9f0ff;fill-opacity:1;stroke:none;stroke-width:0.34794217px;stroke-linecap:butt;stroke-linejoin:miter;stroke-opacity:1"
       d="m 217.99391,284.76843 7.10386,-1.75005 c -0.11023,-0.90366 -0.0759,-1.387 0.0431,-1.62505 l -7.10387,-2.00006 c -0.326,1.79173 -0.51265,3.58345 -0.0431,5.37516 z"
       id="path4573-8-5"
       inkscape:connector-curvature="0"
       sodipodi:nodetypes="ccccc" />
    <path
       style="fill:#d9f0ff;fill-opacity:1;stroke:none;stroke-width:0.34794217px;stroke-linecap:butt;stroke-linejoin:miter;stroke-opacity:1"
       d="m 219.1021,276.9866 6.30182,3.62401 c 0.58226,-0.71445 0.9597,-1.03272 1.21774,-1.11962 l -3.56191,-6.27575 c -1.53958,1.04383 -2.98065,2.18304 -3.95766,3.77135 z"
       id="path4573-9-7"
       inkscape:connector-curvature="0"
       sodipodi:nodetypes="ccccc" />
    <path
       style="fill:#d9f0ff;fill-opacity:1;stroke:none;stroke-width:0.34794217px;stroke-linecap:butt;stroke-linejoin:miter;stroke-opacity:1"
       d="m 233.68846,273.42831 -3.74456,6.09896 c 0.73823,0.5635 1.06708,0.92879 1.15687,1.17853 l 6.48451,-3.44724 c -1.07856,-1.49003 -2.25566,-2.8847 -3.89681,-3.83026 z"
       id="path4573-9-6-6"
       inkscape:connector-curvature="0"
       sodipodi:nodetypes="ccccc" />
    <path
       style="fill:#d9f0ff;fill-opacity:1;stroke:none;stroke-width:0.34794217px;stroke-linecap:butt;stroke-linejoin:miter;stroke-opacity:1"
       d="m 237.28385,287.56982 -6.30184,-3.62402 c -0.58226,0.71448 -0.9597,1.03274 -1.21774,1.11963 l 3.56191,6.27578 c 1.53959,-1.04384 2.98066,-2.18305 3.95767,-3.77136 z"
       id="path4573-9-5-4"
       inkscape:connector-curvature="0"
       sodipodi:nodetypes="ccccc" />
    <path
       style="fill:#d9f0ff;fill-opacity:1;stroke:none;stroke-width:0.34794217px;stroke-linecap:butt;stroke-linejoin:miter;stroke-opacity:1"
       d="m 222.70756,290.9697 3.74456,-6.09896 c -0.7382,-0.56353 -1.06708,-0.9288 -1.15686,-1.17853 l -6.48452,3.44723 c 1.07856,1.49003 2.25569,2.88471 3.89682,3.83027 z"
       id="path4573-9-8-3"
       inkscape:connector-curvature="0"
       sodipodi:nodetypes="ccccc" />
    <path
       style="fill:#4daaff;fill-opacity:1;stroke:none;stroke-width:0.26458332px;stroke-linecap:butt;stroke-linejoin:miter;stroke-opacity:1"
       d="m 187.1431,267.83036 0.0407,-7.45167 -6.71806,-0.017 -24.40251,0.2545 11.86597,-13.70998 12.53654,13.45548 6.71806,0.017 -0.11351,-2.37321 -19.56665,-20.93008 -26.32846,30.72575 z"
       id="path4534-5-4"
       inkscape:connector-curvature="0"
       sodipodi:nodetypes="ccccccccccc" />
    <path
       style="fill:#4daaff;fill-opacity:1;stroke:none;stroke-width:0.26458332px;stroke-linecap:butt;stroke-linejoin:miter;stroke-opacity:1"
       d="m 227.2778,257.90567 -19.45198,-20.83927 -18.12367,20.57373 0.0237,10.26467 46.98171,0.0292 -7.22043,-7.7169 -33.43436,0.27742 11.91491,-13.31363 10.06808,10.86293 z"
       id="path4534-5-6"
       inkscape:connector-curvature="0"
       sodipodi:nodetypes="cccccccccc" />
  </g>
</svg>
